<?xml version="1.0" encoding="utf-8"?>
<!-- Generator: Adobe Illustrator 27.5.0, SVG Export Plug-In . SVG Version: 6.00 Build 0)  -->
<svg version="1.1" xmlns="http://www.w3.org/2000/svg" xmlns:xlink="http://www.w3.org/1999/xlink" x="0px" y="0px"
	 viewBox="0 0 800 800" style="enable-background:new 0 0 800 800;" xml:space="preserve">
<g id="Background">
	<rect x="0" style="fill:#AACFDB;" width="801.98" height="801.98"/>
</g>
<g id="Objects">
	<rect x="153.96" y="655.83" style="fill:none;" width="492.079" height="70.883"/>
	<text transform="matrix(1 0 0 1 260.9272 685.158)" style="font-family:'Dosis-Bold'; font-size:39px;">- PROGRAMMER -</text>
	<g>
		<g>
			<path d="M288.492,724.864v-0.257c-0.349,0.398-0.692,0.724-1.031,0.973c-0.338,0.251-0.706,0.441-1.102,0.57
				c-0.396,0.132-0.827,0.195-1.296,0.195c-0.621,0-1.196-0.131-1.725-0.393c-0.528-0.263-0.986-0.639-1.372-1.126
				c-0.387-0.487-0.68-1.06-0.879-1.719c-0.199-0.659-0.299-1.371-0.299-2.137c0-1.621,0.396-2.886,1.188-3.791
				c0.792-0.904,1.833-1.357,3.125-1.357c0.747,0,1.377,0.129,1.89,0.384c0.513,0.257,1.013,0.652,1.501,1.183v-3.827
				c0-0.532,0.105-0.934,0.318-1.206c0.211-0.273,0.514-0.408,0.907-0.408c0.393,0,0.694,0.125,0.907,0.375
				c0.212,0.251,0.318,0.618,0.318,1.106v11.436c0,0.494-0.113,0.864-0.342,1.111c-0.228,0.246-0.522,0.37-0.883,0.37
				c-0.354,0-0.647-0.128-0.879-0.384C288.607,725.704,288.492,725.339,288.492,724.864z M283.392,721.055
				c0,0.703,0.109,1.301,0.328,1.795c0.219,0.494,0.518,0.866,0.897,1.115c0.38,0.251,0.795,0.377,1.244,0.377
				c0.456,0,0.872-0.119,1.249-0.357c0.377-0.236,0.677-0.602,0.902-1.091c0.225-0.491,0.337-1.105,0.337-1.839
				c0-0.69-0.112-1.284-0.337-1.782c-0.225-0.496-0.528-0.876-0.912-1.14c-0.383-0.262-0.803-0.393-1.258-0.393
				c-0.475,0-0.899,0.135-1.273,0.403c-0.374,0.269-0.663,0.654-0.869,1.158C283.494,719.806,283.392,720.39,283.392,721.055z"/>
			<path d="M299.926,721.711h-5.071c0.006,0.588,0.125,1.107,0.356,1.557c0.23,0.45,0.538,0.789,0.921,1.017
				c0.383,0.229,0.806,0.341,1.268,0.341c0.31,0,0.593-0.035,0.85-0.107c0.257-0.074,0.505-0.187,0.746-0.343
				c0.241-0.154,0.462-0.321,0.665-0.499c0.202-0.178,0.464-0.419,0.788-0.723c0.133-0.113,0.323-0.171,0.571-0.171
				c0.266,0,0.48,0.074,0.645,0.22c0.165,0.146,0.248,0.351,0.248,0.617c0,0.234-0.093,0.507-0.275,0.821
				c-0.185,0.314-0.462,0.614-0.832,0.902c-0.372,0.288-0.835,0.526-1.397,0.717c-0.56,0.19-1.204,0.285-1.933,0.285
				c-1.664,0-2.96-0.476-3.884-1.425c-0.924-0.949-1.386-2.238-1.386-3.865c0-0.767,0.113-1.478,0.341-2.132
				c0.229-0.656,0.561-1.218,0.997-1.687c0.437-0.469,0.975-0.827,1.615-1.078c0.639-0.25,1.349-0.374,2.127-0.374
				c1.013,0,1.882,0.212,2.606,0.641c0.726,0.427,1.27,0.979,1.63,1.656c0.36,0.678,0.542,1.369,0.542,2.07
				c0,0.653-0.187,1.075-0.56,1.27C301.13,721.614,300.604,721.711,299.926,721.711z M294.855,720.239h4.702
				c-0.063-0.887-0.303-1.551-0.717-1.99c-0.415-0.44-0.96-0.66-1.638-0.66c-0.646,0-1.177,0.223-1.591,0.669
				C295.195,718.704,294.944,719.365,294.855,720.239z"/>
			<path d="M311.741,722.954c0,0.716-0.173,1.329-0.522,1.839c-0.348,0.51-0.862,0.896-1.543,1.159
				c-0.68,0.263-1.508,0.393-2.483,0.393c-0.931,0-1.728-0.143-2.394-0.428c-0.664-0.284-1.156-0.642-1.472-1.067
				c-0.317-0.429-0.475-0.857-0.475-1.288c0-0.285,0.101-0.528,0.304-0.73c0.202-0.202,0.459-0.304,0.77-0.304
				c0.271,0,0.48,0.066,0.626,0.199c0.146,0.133,0.286,0.32,0.418,0.56c0.266,0.464,0.585,0.807,0.956,1.036
				c0.37,0.228,0.875,0.342,1.515,0.342c0.519,0,0.945-0.116,1.277-0.347c0.332-0.232,0.498-0.496,0.498-0.794
				c0-0.456-0.172-0.787-0.518-0.996c-0.345-0.209-0.913-0.409-1.705-0.6c-0.893-0.221-1.619-0.454-2.18-0.698
				c-0.561-0.242-1.008-0.565-1.344-0.963c-0.335-0.399-0.503-0.891-0.503-1.473c0-0.518,0.155-1.01,0.465-1.473
				c0.311-0.461,0.768-0.83,1.374-1.106c0.603-0.276,1.333-0.414,2.188-0.414c0.671,0,1.275,0.069,1.809,0.21
				c0.536,0.138,0.983,0.326,1.34,0.561c0.358,0.233,0.63,0.493,0.816,0.777c0.186,0.285,0.28,0.563,0.28,0.837
				c0,0.297-0.1,0.541-0.298,0.732c-0.199,0.188-0.482,0.285-0.85,0.285c-0.266,0-0.492-0.076-0.679-0.229
				c-0.186-0.151-0.4-0.379-0.641-0.683c-0.196-0.253-0.426-0.456-0.693-0.608c-0.266-0.152-0.627-0.228-1.083-0.228
				c-0.469,0-0.858,0.099-1.168,0.3c-0.31,0.198-0.465,0.446-0.465,0.744c0,0.273,0.114,0.496,0.341,0.67
				c0.228,0.175,0.535,0.319,0.922,0.433c0.386,0.113,0.917,0.252,1.596,0.417c0.803,0.197,1.46,0.432,1.97,0.703
				c0.509,0.271,0.896,0.594,1.16,0.965C311.61,722.057,311.741,722.479,311.741,722.954z"/>
			<path d="M314.39,714.597c-0.361,0-0.669-0.111-0.926-0.333c-0.256-0.221-0.385-0.534-0.385-0.94c0-0.368,0.131-0.669,0.394-0.907
				c0.263-0.238,0.569-0.356,0.916-0.356c0.336,0,0.633,0.107,0.893,0.323c0.26,0.216,0.39,0.528,0.39,0.94
				c0,0.399-0.127,0.711-0.381,0.936C315.039,714.484,314.738,714.597,314.39,714.597z M315.672,717.275v7.493
				c0,0.52-0.124,0.913-0.371,1.179c-0.247,0.266-0.56,0.398-0.94,0.398s-0.689-0.136-0.926-0.408
				c-0.238-0.272-0.356-0.662-0.356-1.169v-7.418c0-0.512,0.118-0.898,0.356-1.158c0.237-0.26,0.546-0.39,0.926-0.39
				s0.693,0.13,0.94,0.39C315.549,716.452,315.672,716.813,315.672,717.275z"/>
			<path d="M327.031,717.703v7.531c0,0.861-0.093,1.602-0.277,2.224c-0.182,0.619-0.477,1.133-0.883,1.538
				c-0.405,0.404-0.935,0.706-1.59,0.901c-0.655,0.197-1.471,0.295-2.446,0.295c-0.893,0-1.69-0.125-2.393-0.375
				c-0.702-0.251-1.243-0.573-1.624-0.969c-0.379-0.396-0.57-0.803-0.57-1.221c0-0.316,0.108-0.575,0.324-0.773
				c0.215-0.2,0.475-0.3,0.778-0.3c0.38,0,0.712,0.168,0.997,0.503c0.139,0.171,0.283,0.345,0.432,0.519
				c0.149,0.175,0.314,0.323,0.494,0.447c0.181,0.122,0.398,0.214,0.65,0.274c0.253,0.059,0.545,0.09,0.874,0.09
				c0.671,0,1.192-0.093,1.563-0.28c0.371-0.187,0.63-0.448,0.779-0.784c0.149-0.334,0.236-0.693,0.261-1.077
				c0.025-0.384,0.044-0.999,0.057-1.849c-0.399,0.559-0.859,0.983-1.382,1.274c-0.522,0.291-1.145,0.436-1.866,0.436
				c-0.868,0-1.625-0.222-2.275-0.665c-0.648-0.443-1.147-1.063-1.495-1.861c-0.349-0.799-0.522-1.719-0.522-2.764
				c0-0.778,0.105-1.482,0.317-2.108c0.213-0.628,0.515-1.156,0.907-1.587c0.393-0.431,0.845-0.755,1.358-0.974
				c0.513-0.218,1.076-0.327,1.691-0.327c0.734,0,1.371,0.142,1.909,0.422c0.538,0.283,1.039,0.725,1.5,1.326v-0.352
				c0-0.449,0.11-0.797,0.332-1.045c0.222-0.246,0.507-0.37,0.855-0.37c0.5,0,0.832,0.164,0.997,0.489
				C326.948,716.618,327.031,717.089,327.031,717.703z M319.518,720.989c0,1.051,0.229,1.846,0.688,2.384
				c0.459,0.539,1.053,0.808,1.781,0.808c0.43,0,0.837-0.116,1.22-0.347c0.384-0.232,0.695-0.58,0.936-1.045
				c0.24-0.466,0.361-1.03,0.361-1.695c0-1.057-0.232-1.881-0.698-2.469c-0.466-0.589-1.078-0.884-1.838-0.884
				c-0.741,0-1.334,0.282-1.78,0.846C319.741,719.149,319.518,719.951,319.518,720.989z"/>
			<path d="M331.152,717.237v0.314c0.455-0.602,0.954-1.043,1.496-1.325c0.542-0.281,1.163-0.423,1.866-0.423
				c0.684,0,1.295,0.149,1.833,0.447c0.538,0.298,0.941,0.719,1.206,1.262c0.172,0.317,0.282,0.66,0.332,1.026
				c0.051,0.368,0.077,0.836,0.077,1.406v4.824c0,0.52-0.119,0.913-0.357,1.179c-0.237,0.266-0.546,0.398-0.926,0.398
				c-0.387,0-0.7-0.136-0.94-0.408c-0.241-0.272-0.361-0.662-0.361-1.169v-4.321c0-0.854-0.119-1.509-0.356-1.961
				c-0.238-0.452-0.71-0.68-1.42-0.68c-0.461,0-0.883,0.138-1.263,0.413c-0.38,0.276-0.659,0.655-0.836,1.136
				c-0.126,0.387-0.19,1.107-0.19,2.165v3.248c0,0.525-0.123,0.921-0.365,1.184c-0.244,0.263-0.559,0.393-0.945,0.393
				c-0.375,0-0.681-0.136-0.922-0.408c-0.24-0.272-0.361-0.662-0.361-1.169v-7.493c0-0.494,0.107-0.863,0.323-1.107
				c0.215-0.243,0.51-0.365,0.883-0.365c0.229,0,0.435,0.054,0.619,0.162c0.183,0.108,0.331,0.27,0.441,0.483
				C331.097,716.664,331.152,716.927,331.152,717.237z"/>
			<path d="M346.926,721.711h-5.071c0.007,0.588,0.125,1.107,0.356,1.557c0.231,0.45,0.538,0.789,0.921,1.017
				c0.382,0.229,0.805,0.341,1.267,0.341c0.31,0,0.594-0.035,0.851-0.107c0.255-0.074,0.504-0.187,0.746-0.343
				c0.24-0.154,0.461-0.321,0.665-0.499c0.202-0.178,0.464-0.419,0.788-0.723c0.133-0.113,0.323-0.171,0.57-0.171
				c0.266,0,0.481,0.074,0.646,0.22c0.165,0.146,0.247,0.351,0.247,0.617c0,0.234-0.091,0.507-0.275,0.821
				c-0.184,0.314-0.461,0.614-0.832,0.902c-0.371,0.288-0.835,0.526-1.396,0.717c-0.56,0.19-1.205,0.285-1.933,0.285
				c-1.665,0-2.96-0.476-3.885-1.425c-0.923-0.949-1.386-2.238-1.386-3.865c0-0.767,0.114-1.478,0.342-2.132
				c0.228-0.656,0.561-1.218,0.998-1.687c0.436-0.469,0.975-0.827,1.614-1.078c0.639-0.25,1.349-0.374,2.128-0.374
				c1.013,0,1.881,0.212,2.606,0.641c0.726,0.427,1.269,0.979,1.63,1.656c0.36,0.678,0.542,1.369,0.542,2.07
				c0,0.653-0.186,1.075-0.561,1.27C348.13,721.614,347.605,721.711,346.926,721.711z M341.855,720.239h4.701
				c-0.063-0.887-0.302-1.551-0.717-1.99c-0.415-0.44-0.961-0.66-1.638-0.66c-0.646,0-1.177,0.223-1.592,0.669
				C342.194,718.704,341.944,719.365,341.855,720.239z"/>
			<path d="M357.496,724.864v-0.257c-0.348,0.398-0.691,0.724-1.03,0.973c-0.339,0.251-0.706,0.441-1.102,0.57
				c-0.395,0.132-0.828,0.195-1.296,0.195c-0.622,0-1.196-0.131-1.724-0.393c-0.529-0.263-0.986-0.639-1.373-1.126
				c-0.387-0.487-0.679-1.06-0.878-1.719c-0.2-0.659-0.299-1.371-0.299-2.137c0-1.621,0.395-2.886,1.187-3.791
				c0.792-0.904,1.833-1.357,3.125-1.357c0.747,0,1.378,0.129,1.89,0.384c0.513,0.257,1.013,0.652,1.5,1.183v-3.827
				c0-0.532,0.106-0.934,0.319-1.206c0.211-0.273,0.515-0.408,0.907-0.408c0.392,0,0.694,0.125,0.907,0.375
				c0.212,0.251,0.318,0.618,0.318,1.106v11.436c0,0.494-0.114,0.864-0.342,1.111c-0.228,0.246-0.522,0.37-0.883,0.37
				c-0.355,0-0.647-0.128-0.879-0.384C357.612,725.704,357.496,725.339,357.496,724.864z M352.396,721.055
				c0,0.703,0.108,1.301,0.327,1.795c0.218,0.494,0.518,0.866,0.898,1.115c0.379,0.251,0.794,0.377,1.243,0.377
				c0.456,0,0.873-0.119,1.249-0.357c0.377-0.236,0.678-0.602,0.902-1.091c0.225-0.491,0.337-1.105,0.337-1.839
				c0-0.69-0.112-1.284-0.337-1.782c-0.224-0.496-0.528-0.876-0.912-1.14c-0.384-0.262-0.803-0.393-1.259-0.393
				c-0.474,0-0.899,0.135-1.272,0.403c-0.373,0.269-0.663,0.654-0.869,1.158C352.499,719.806,352.396,720.39,352.396,721.055z"/>
			<path d="M368.094,713.428v3.96c0.487-0.506,0.984-0.895,1.491-1.163c0.506-0.269,1.134-0.403,1.881-0.403
				c0.861,0,1.616,0.204,2.266,0.611c0.648,0.41,1.151,1.002,1.51,1.777c0.357,0.774,0.537,1.695,0.537,2.76
				c0,0.785-0.1,1.504-0.299,2.16c-0.2,0.655-0.49,1.224-0.869,1.704c-0.38,0.481-0.841,0.854-1.382,1.117
				c-0.542,0.263-1.139,0.393-1.79,0.393c-0.399,0-0.775-0.047-1.125-0.143c-0.352-0.095-0.651-0.219-0.898-0.375
				c-0.246-0.154-0.457-0.314-0.631-0.479c-0.174-0.164-0.404-0.412-0.689-0.741v0.257c0,0.487-0.117,0.856-0.352,1.107
				c-0.233,0.25-0.531,0.374-0.892,0.374c-0.367,0-0.66-0.124-0.879-0.374c-0.219-0.251-0.328-0.62-0.328-1.107v-11.322
				c0-0.525,0.106-0.923,0.317-1.191c0.212-0.269,0.509-0.403,0.889-0.403c0.399,0,0.706,0.128,0.921,0.384
				C367.986,712.589,368.094,712.953,368.094,713.428z M368.218,721.131c0,1.032,0.236,1.824,0.708,2.378
				c0.472,0.555,1.091,0.833,1.857,0.833c0.652,0,1.214-0.283,1.686-0.851c0.472-0.567,0.708-1.379,0.708-2.437
				c0-0.684-0.097-1.273-0.294-1.767c-0.197-0.494-0.475-0.876-0.835-1.145c-0.361-0.268-0.783-0.403-1.264-0.403
				c-0.494,0-0.935,0.135-1.32,0.403c-0.386,0.269-0.69,0.658-0.912,1.168C368.329,719.821,368.218,720.428,368.218,721.131z"/>
			<path d="M379.14,726.669l0.237-0.58l-3.191-8.035c-0.196-0.461-0.295-0.798-0.295-1.007c0-0.222,0.058-0.427,0.171-0.616
				c0.114-0.19,0.271-0.343,0.47-0.456c0.2-0.115,0.407-0.172,0.622-0.172c0.373,0,0.655,0.119,0.846,0.357
				c0.19,0.237,0.357,0.577,0.503,1.021l2.194,6.383l2.08-5.936c0.164-0.479,0.313-0.857,0.446-1.13
				c0.133-0.273,0.273-0.456,0.422-0.55c0.149-0.096,0.359-0.144,0.632-0.144c0.197,0,0.385,0.052,0.565,0.157
				c0.18,0.104,0.319,0.245,0.418,0.423c0.098,0.177,0.148,0.363,0.148,0.56c-0.026,0.12-0.066,0.291-0.124,0.514
				c-0.058,0.221-0.126,0.447-0.208,0.674l-3.381,8.852c-0.292,0.778-0.577,1.389-0.855,1.832c-0.279,0.443-0.647,0.785-1.106,1.021
				c-0.46,0.238-1.078,0.357-1.857,0.357c-0.759,0-1.33-0.082-1.708-0.246c-0.381-0.166-0.57-0.467-0.57-0.903
				c0-0.297,0.089-0.527,0.271-0.688c0.18-0.161,0.448-0.243,0.801-0.243c0.14,0,0.276,0.02,0.409,0.059
				c0.164,0.037,0.307,0.057,0.427,0.057c0.297,0,0.532-0.044,0.704-0.134c0.17-0.088,0.324-0.241,0.461-0.461
				C378.806,727.415,378.963,727.092,379.14,726.669z"/>
		</g>
		<g>
			<g>
				<path d="M416.703,716.027h0.618v-0.778c0-0.814,0.1-1.457,0.307-1.938c0.204-0.479,0.556-0.826,1.047-1.045
					c0.49-0.217,1.163-0.326,2.017-0.326c1.52,0,2.272,0.367,2.272,1.114c0,0.238-0.079,0.444-0.24,0.615
					c-0.154,0.169-0.343,0.256-0.558,0.256c-0.1,0-0.278-0.019-0.527-0.06c-0.237-0.033-0.452-0.056-0.623-0.056
					c-0.468,0-0.767,0.141-0.905,0.415c-0.127,0.275-0.195,0.669-0.195,1.185v0.617h0.633c0.991,0,1.481,0.297,1.481,0.896
					c0,0.419-0.127,0.69-0.393,0.805c-0.262,0.114-0.624,0.171-1.089,0.171h-0.633v6.871c0,0.511-0.12,0.9-0.369,1.168
					c-0.241,0.273-0.554,0.406-0.942,0.406c-0.367,0-0.671-0.134-0.918-0.406c-0.244-0.268-0.364-0.657-0.364-1.168v-6.871h-0.714
					c-0.389,0-0.683-0.084-0.894-0.262c-0.209-0.171-0.314-0.399-0.314-0.678C415.399,716.335,415.834,716.027,416.703,716.027"/>
				<path d="M425.192,722.601v2.168c0,0.523-0.133,0.919-0.374,1.18c-0.247,0.266-0.559,0.395-0.938,0.395
					c-0.382,0-0.688-0.131-0.927-0.4c-0.236-0.264-0.36-0.656-0.36-1.174v-7.223c0-1.166,0.42-1.749,1.261-1.749
					c0.434,0,0.743,0.135,0.934,0.408c0.189,0.273,0.295,0.674,0.317,1.208c0.308-0.534,0.624-0.935,0.948-1.208
					c0.332-0.273,0.763-0.408,1.31-0.408c0.549,0,1.072,0.135,1.585,0.408c0.516,0.273,0.771,0.637,0.771,1.085
					c0,0.315-0.11,0.58-0.326,0.781c-0.22,0.209-0.454,0.312-0.706,0.312c-0.1,0-0.331-0.063-0.692-0.18
					c-0.365-0.113-0.688-0.173-0.963-0.173c-0.38,0-0.692,0.103-0.932,0.298c-0.242,0.205-0.431,0.497-0.564,0.887
					c-0.129,0.395-0.219,0.865-0.273,1.404C425.215,721.162,425.192,721.823,425.192,722.601"/>
				<path d="M437.113,721.709h-5.074c0.009,0.588,0.124,1.11,0.354,1.559c0.235,0.446,0.54,0.786,0.925,1.017
					c0.385,0.227,0.804,0.34,1.268,0.34c0.311,0,0.593-0.033,0.85-0.111c0.254-0.069,0.505-0.186,0.745-0.341
					c0.242-0.152,0.46-0.318,0.664-0.5c0.202-0.175,0.467-0.416,0.79-0.719c0.135-0.113,0.324-0.174,0.568-0.174
					c0.269,0,0.481,0.074,0.649,0.222c0.166,0.147,0.243,0.351,0.243,0.617c0,0.235-0.089,0.508-0.268,0.819
					c-0.188,0.317-0.463,0.616-0.836,0.906c-0.374,0.285-0.839,0.527-1.398,0.714c-0.559,0.19-1.206,0.286-1.932,0.286
					c-1.671,0-2.964-0.473-3.887-1.422c-0.924-0.952-1.392-2.242-1.392-3.868c0-0.767,0.117-1.478,0.348-2.135
					c0.225-0.658,0.558-1.216,0.999-1.688c0.436-0.471,0.97-0.828,1.612-1.078c0.638-0.249,1.347-0.374,2.128-0.374
					c1.011,0,1.881,0.214,2.606,0.646c0.724,0.423,1.273,0.977,1.629,1.654c0.361,0.681,0.542,1.368,0.542,2.074
					c0,0.648-0.188,1.07-0.561,1.266C438.315,721.612,437.791,721.709,437.113,721.709 M432.039,720.234h4.701
					c-0.063-0.885-0.298-1.55-0.714-1.986c-0.418-0.442-0.959-0.66-1.641-0.66c-0.645,0-1.177,0.22-1.592,0.669
					C432.38,718.703,432.126,719.361,432.039,720.234"/>
				<path d="M447.9,721.709h-5.073c0.006,0.588,0.125,1.11,0.354,1.559c0.231,0.446,0.539,0.786,0.921,1.017
					c0.383,0.227,0.806,0.34,1.271,0.34c0.308,0,0.593-0.033,0.845-0.111c0.259-0.069,0.506-0.186,0.75-0.341
					c0.242-0.152,0.46-0.318,0.664-0.5c0.199-0.175,0.464-0.416,0.788-0.719c0.135-0.113,0.326-0.174,0.568-0.174
					c0.268,0,0.483,0.074,0.65,0.222c0.165,0.147,0.24,0.351,0.24,0.617c0,0.235-0.087,0.508-0.273,0.819
					c-0.177,0.317-0.455,0.616-0.83,0.906c-0.37,0.285-0.84,0.527-1.395,0.714c-0.558,0.19-1.208,0.286-1.935,0.286
					c-1.667,0-2.959-0.473-3.887-1.422c-0.924-0.952-1.389-2.242-1.389-3.868c0-0.767,0.116-1.478,0.348-2.135
					c0.227-0.658,0.559-1.216,0.996-1.688c0.436-0.471,0.973-0.828,1.614-1.078c0.638-0.249,1.351-0.374,2.129-0.374
					c1.009,0,1.878,0.214,2.613,0.646c0.72,0.423,1.266,0.977,1.621,1.654c0.359,0.681,0.545,1.368,0.545,2.074
					c0,0.648-0.191,1.07-0.561,1.266C449.1,721.612,448.576,721.709,447.9,721.709 M442.827,720.234h4.701
					c-0.063-0.885-0.304-1.55-0.715-1.986c-0.421-0.442-0.962-0.66-1.643-0.66c-0.645,0-1.176,0.22-1.593,0.669
					C443.165,718.703,442.911,719.361,442.827,720.234"/>
				<path d="M453.58,717.256v0.311c0.486-0.601,0.994-1.042,1.524-1.324c0.519-0.284,1.118-0.427,1.782-0.427
					c0.795,0,1.535,0.208,2.207,0.617c0.671,0.414,1.198,1.016,1.589,1.807c0.39,0.795,0.586,1.729,0.586,2.813
					c0,0.796-0.112,1.531-0.336,2.201c-0.224,0.668-0.537,1.227-0.929,1.68c-0.393,0.45-0.855,0.802-1.39,1.046
					c-0.542,0.241-1.111,0.363-1.728,0.363c-0.738,0-1.364-0.148-1.865-0.447c-0.503-0.292-0.982-0.733-1.441-1.306v3.893
					c0,1.136-0.416,1.71-1.244,1.71c-0.49,0-0.809-0.146-0.972-0.44c-0.151-0.299-0.233-0.724-0.233-1.291v-11.193
					c0-0.495,0.106-0.859,0.32-1.107c0.215-0.239,0.512-0.364,0.885-0.364c0.369,0,0.666,0.125,0.896,0.374
					C453.467,716.425,453.58,716.782,453.58,717.256 M458.664,721.024c0-0.685-0.107-1.273-0.315-1.763
					c-0.209-0.492-0.499-0.867-0.866-1.128c-0.367-0.263-0.782-0.397-1.232-0.397c-0.714,0-1.318,0.284-1.809,0.844
					c-0.492,0.566-0.739,1.396-0.739,2.493c0,1.026,0.244,1.833,0.735,2.406c0.487,0.573,1.086,0.858,1.813,0.858
					c0.429,0,0.83-0.126,1.197-0.372c0.371-0.253,0.665-0.627,0.884-1.127C458.553,722.338,458.664,721.732,458.664,721.024"/>
				<path d="M463.88,714.59c-0.362,0-0.669-0.114-0.923-0.335c-0.26-0.223-0.388-0.532-0.388-0.937c0-0.368,0.131-0.67,0.396-0.91
					c0.262-0.234,0.566-0.356,0.914-0.356c0.34,0,0.636,0.107,0.894,0.319c0.26,0.219,0.391,0.534,0.391,0.946
					c0,0.399-0.127,0.711-0.378,0.936C464.532,714.476,464.231,714.59,463.88,714.59 M465.164,717.269v7.502
					c0,0.516-0.124,0.908-0.37,1.172c-0.25,0.27-0.561,0.4-0.941,0.4c-0.381,0-0.685-0.134-0.928-0.406
					c-0.233-0.276-0.355-0.665-0.355-1.166v-7.428c0-0.51,0.122-0.895,0.355-1.154c0.243-0.265,0.547-0.392,0.928-0.392
					c0.381,0,0.691,0.127,0.941,0.392C465.04,716.449,465.164,716.811,465.164,717.269"/>
				<path d="M473.523,725.16l-2.284-3.766l-1.408,1.328v2.065c0,0.499-0.133,0.882-0.397,1.149
					c-0.257,0.273-0.566,0.406-0.906,0.406c-0.398,0-0.715-0.131-0.94-0.4c-0.227-0.264-0.344-0.656-0.344-1.174v-11.063
					c0-0.573,0.114-1.011,0.331-1.313c0.223-0.305,0.545-0.452,0.953-0.452c0.399,0,0.713,0.137,0.949,0.411
					c0.234,0.271,0.354,0.674,0.354,1.202v6.293l2.916-3.063c0.362-0.376,0.633-0.641,0.827-0.778
					c0.189-0.139,0.419-0.208,0.689-0.208c0.326,0,0.594,0.104,0.815,0.309c0.211,0.206,0.32,0.466,0.32,0.773
					c0,0.379-0.354,0.889-1.055,1.521l-1.377,1.263l2.659,4.183c0.193,0.313,0.339,0.544,0.424,0.706
					c0.084,0.159,0.13,0.319,0.13,0.462c0,0.413-0.114,0.734-0.341,0.976c-0.225,0.236-0.523,0.354-0.886,0.354
					c-0.316,0-0.564-0.081-0.733-0.256C474.051,725.915,473.813,725.604,473.523,725.16"/>
				<path d="M479.159,726.343c-0.392,0-0.728-0.126-1.014-0.381c-0.284-0.249-0.429-0.606-0.429-1.065
					c0-0.386,0.138-0.719,0.41-0.995c0.274-0.279,0.607-0.419,1.008-0.419c0.397,0,0.735,0.14,1.022,0.412
					c0.279,0.275,0.422,0.612,0.422,1.002c0,0.452-0.143,0.808-0.422,1.06C479.87,726.217,479.538,726.343,479.159,726.343"/>
				<path d="M492.057,723.133c0,0.32-0.097,0.668-0.291,1.034c-0.191,0.37-0.488,0.718-0.886,1.05
					c-0.395,0.332-0.892,0.602-1.495,0.804c-0.601,0.202-1.28,0.307-2.03,0.307c-1.606,0-2.858-0.47-3.758-1.401
					c-0.896-0.936-1.346-2.19-1.346-3.76c0-1.067,0.204-2.006,0.619-2.824c0.407-0.815,1.004-1.447,1.781-1.894
					c0.779-0.448,1.716-0.67,2.794-0.67c0.674,0,1.288,0.098,1.852,0.295c0.561,0.195,1.032,0.451,1.425,0.759
					c0.387,0.315,0.685,0.644,0.89,0.992c0.207,0.352,0.308,0.681,0.308,0.987c0,0.308-0.113,0.571-0.343,0.787
					c-0.235,0.215-0.516,0.324-0.839,0.324c-0.219,0-0.398-0.057-0.541-0.166c-0.144-0.112-0.305-0.29-0.479-0.542
					c-0.317-0.479-0.646-0.842-0.996-1.079c-0.343-0.243-0.78-0.362-1.314-0.362c-0.762,0-1.384,0.298-1.854,0.898
					c-0.468,0.596-0.703,1.42-0.703,2.454c0,0.488,0.063,0.939,0.183,1.348c0.117,0.407,0.291,0.756,0.52,1.044
					c0.23,0.287,0.504,0.505,0.826,0.654c0.324,0.153,0.681,0.226,1.064,0.226c0.521,0,0.967-0.12,1.337-0.36
					c0.376-0.241,0.702-0.607,0.986-1.102c0.158-0.291,0.327-0.518,0.509-0.684c0.183-0.163,0.409-0.249,0.676-0.249
					c0.316,0,0.58,0.123,0.786,0.362C491.951,722.604,492.057,722.863,492.057,723.133"/>
				<path d="M503.248,721.073c0,0.77-0.122,1.484-0.355,2.139c-0.247,0.652-0.592,1.213-1.05,1.679
					c-0.455,0.469-1.002,0.828-1.632,1.08c-0.64,0.247-1.35,0.375-2.139,0.375c-0.785,0-1.493-0.128-2.121-0.383
					c-0.623-0.249-1.171-0.614-1.626-1.082c-0.461-0.477-0.809-1.034-1.052-1.677c-0.229-0.643-0.351-1.354-0.351-2.131
					c0-0.786,0.124-1.506,0.358-2.158c0.242-0.654,0.589-1.212,1.039-1.673c0.451-0.462,0.993-0.817,1.631-1.07
					c0.643-0.249,1.35-0.374,2.121-0.374c0.784,0,1.498,0.125,2.139,0.382c0.638,0.251,1.183,0.614,1.644,1.079
					c0.458,0.475,0.803,1.029,1.04,1.672C503.128,719.582,503.248,720.291,503.248,721.073 M500.644,721.073
					c0-1.059-0.234-1.881-0.698-2.469c-0.463-0.596-1.09-0.888-1.874-0.888c-0.508,0-0.955,0.132-1.343,0.394
					c-0.387,0.262-0.681,0.649-0.89,1.164c-0.209,0.514-0.315,1.113-0.315,1.799c0,0.679,0.103,1.268,0.31,1.773
					c0.208,0.511,0.502,0.897,0.886,1.166c0.386,0.267,0.835,0.404,1.353,0.404c0.784,0,1.411-0.296,1.874-0.892
					C500.41,722.934,500.644,722.114,500.644,721.073"/>
				<path d="M513.14,721.263v3.446c0,0.547-0.12,0.951-0.369,1.227c-0.25,0.273-0.571,0.408-0.978,0.408
					c-0.393,0-0.714-0.136-0.951-0.408c-0.247-0.276-0.372-0.681-0.372-1.227v-4.131c0-0.653-0.02-1.162-0.063-1.524
					c-0.046-0.354-0.168-0.655-0.362-0.883c-0.196-0.235-0.509-0.352-0.931-0.352c-0.851,0-1.407,0.29-1.677,0.881
					c-0.268,0.576-0.406,1.413-0.406,2.507v3.502c0,0.538-0.122,0.946-0.361,1.224c-0.249,0.273-0.567,0.412-0.965,0.412
					c-0.396,0-0.717-0.139-0.967-0.412c-0.252-0.277-0.376-0.686-0.376-1.224v-7.419c0-0.489,0.111-0.86,0.335-1.111
					c0.229-0.257,0.526-0.382,0.89-0.382c0.356,0,0.651,0.123,0.892,0.355c0.236,0.238,0.354,0.566,0.354,0.984v0.245
					c0.453-0.535,0.935-0.932,1.444-1.181c0.517-0.26,1.082-0.386,1.713-0.386c0.651,0,1.211,0.131,1.678,0.39
					c0.47,0.261,0.853,0.655,1.16,1.177c0.439-0.528,0.909-0.923,1.41-1.181c0.5-0.257,1.053-0.386,1.662-0.386
					c0.706,0,1.321,0.143,1.834,0.419c0.51,0.278,0.893,0.68,1.148,1.195c0.221,0.473,0.33,1.21,0.33,2.217v5.063
					c0,0.547-0.122,0.951-0.367,1.227c-0.246,0.273-0.575,0.408-0.979,0.408c-0.395,0-0.714-0.139-0.965-0.412
					c-0.25-0.277-0.376-0.686-0.376-1.224v-4.361c0-0.559-0.023-1.003-0.069-1.338c-0.047-0.337-0.177-0.62-0.383-0.847
					c-0.212-0.228-0.53-0.344-0.953-0.344c-0.342,0-0.666,0.107-0.974,0.308c-0.307,0.198-0.547,0.477-0.721,0.813
					C513.238,719.378,513.14,720.153,513.14,721.263"/>
			</g>
			<g>
				<path d="M392.435,720.445c-0.002-0.005-0.002-0.01-0.002-0.018C392.433,720.435,392.433,720.44,392.435,720.445z"/>
				<path d="M392.566,721.274c0.002,0,0.002,0,0.003,0c-0.05-0.236-0.088-0.471-0.119-0.702
					C392.48,720.805,392.519,721.041,392.566,721.274z"/>
				<path d="M393.424,723.68c-0.006-0.01-0.011-0.021-0.017-0.033C393.413,723.659,393.418,723.67,393.424,723.68z"/>
				<path d="M393.342,723.52c-0.022-0.044-0.044-0.09-0.065-0.134C393.298,723.433,393.32,723.476,393.342,723.52z"/>
				<path d="M392.807,722.201c0.127,0.4,0.28,0.788,0.457,1.158c-0.18-0.378-0.33-0.767-0.454-1.158
					C392.809,722.201,392.808,722.201,392.807,722.201z"/>
				<path d="M402.473,710.508c0.501,0,0.871,0.04,1.295,0.111l0.12-0.763c0,0-1.171-0.36-2.71-0.234l-0.121-0.415
					c0.478-0.101,0.838-0.526,0.838-1.034c0-0.582-0.474-1.054-1.057-1.054s-1.056,0.472-1.056,1.054
					c0,0.508,0.358,0.934,0.836,1.034l0.134,0.463c-1.634,0.225-2.935,0.862-2.935,0.862l0.23,0.705
					c0.989-0.329,1.846-0.529,2.624-0.613C401.432,710.544,402.005,710.508,402.473,710.508z"/>
				<path d="M393.405,714.367l0.006-0.008c0.039-0.05,0.076-0.097,0.113-0.143l-0.313-0.226l-0.488-0.356
					c-0.027,0.038-0.795,0.744-1.401,2.048c-0.025-0.041-0.056-0.081-0.09-0.119c-0.182-0.198-0.436-0.3-0.758-0.294
					c-0.004,0-0.009,0-0.015,0c-0.2,0-0.337-0.066-0.427-0.147c0.089-0.113,0.143-0.256,0.143-0.413c0-0.368-0.3-0.669-0.669-0.669
					c-0.369,0-0.669,0.301-0.669,0.669c0,0.37,0.3,0.669,0.669,0.669c0.058,0,0.113-0.01,0.167-0.021
					c0.164,0.183,0.425,0.342,0.808,0.334c0.197-0.002,0.341,0.049,0.438,0.155c0.111,0.121,0.148,0.296,0.16,0.428
					c-0.001,0.002-0.001,0.005-0.003,0.005c-0.435,1.19-0.311,2.67-0.311,2.67l1.057,0.042c0.022-0.539,0.099-1.482,0.372-2.23
					C392.719,715.311,393.378,714.405,393.405,714.367z"/>
				<path d="M411.672,711.392c-0.368,0-0.669,0.299-0.669,0.669c0,0.058,0.009,0.112,0.023,0.165
					c-0.184,0.166-0.343,0.428-0.337,0.81c0.003,0.197-0.048,0.34-0.154,0.437c-0.085,0.075-0.191,0.115-0.296,0.141
					c-0.787-1.103-1.756-1.775-1.756-1.775l-0.759,0.813c0.573,0.521,1.159,1.175,1.729,1.99c0.394,0.563,0.799,1.29,1.136,2.015
					l1.024-0.486c0,0-0.468-1.155-1.126-2.191c0.114-0.04,0.229-0.103,0.331-0.192c0.2-0.181,0.299-0.436,0.293-0.758
					c-0.002-0.208,0.067-0.349,0.149-0.441c0.114,0.087,0.257,0.143,0.412,0.143c0.371,0,0.67-0.3,0.67-0.669
					C412.342,711.691,412.043,711.392,411.672,711.392z"/>
				<path d="M409.015,720.594c-1.409,0.687-3.728,1.594-6.781,2.02c-1.198,0.166-2.359,0.227-3.428,0.227
					c-1.391,0-2.62-0.103-3.563-0.223c-1.076-0.136-1.917-0.302-2.432-0.418c0.124,0.392,0.273,0.78,0.454,1.158
					c0.003,0.01,0.008,0.021,0.013,0.027c0.021,0.044,0.043,0.09,0.065,0.134c0.021,0.044,0.043,0.087,0.065,0.127
					c0.006,0.012,0.011,0.023,0.017,0.033c0.303,0.57,0.667,1.095,1.081,1.549c1.44,1.575,2.907,1.824,2.921,1.826l0.023,0.003
					l0.022,0.008c0.013,0.005,1.314,0.425,3.292,0.425c1.945,0,3.854-0.393,5.674-1.167c1.348-0.689,2.622-1.736,3.254-2.67
					c0.488-0.723,0.841-1.493,1.05-2.294c0.111-0.426,0.199-1.107,0.147-1.825C410.49,719.801,409.863,720.181,409.015,720.594z"/>
				<path d="M393.857,714.701c-0.041,0.06-0.652,0.925-1.135,2.253c-0.362,0.995-0.346,2.443-0.346,2.46v0.003
					c0,0.34,0.019,0.677,0.057,1.011c0,0.008,0,0.013,0.002,0.018c0.004,0.043,0.011,0.084,0.015,0.127
					c0.03,0.231,0.069,0.466,0.119,0.702c0.7,0.178,4.878,1.152,9.548,0.502c2.927-0.407,5.149-1.273,6.499-1.927
					c1.121-0.544,1.842-1.036,2.12-1.238c-0.277-1.028-1.042-2.641-1.743-3.646c-2.005-2.865-4.167-3.601-5.277-3.783
					c-0.424-0.069-0.763-0.109-1.243-0.109c-0.447,0-1.002,0.036-1.743,0.114c-0.743,0.077-1.572,0.273-2.532,0.596
					c-1.348,0.451-2.567,1.159-3.527,2.048l-0.033,0.03C394.495,713.991,394.199,714.266,393.857,714.701z M406.127,714.034
					c0.961,0,1.743,0.781,1.743,1.743c0,0.962-0.782,1.744-1.743,1.744c-0.962,0-1.742-0.782-1.742-1.744
					C404.385,714.815,405.165,714.034,406.127,714.034z M397.885,713.964c1.557,0,2.817,1.262,2.817,2.817
					c0,1.556-1.26,2.815-2.817,2.815c-1.555,0-2.816-1.259-2.816-2.815C395.069,715.226,396.33,713.964,397.885,713.964z"/>
			</g>
		</g>
	</g>
	<g>
		<g id="XMLID_13_">
			<g>
				<path d="M657.102,234.837l-0.011,368.813c0,2.366-1.916,4.283-4.283,4.283H147.65c-2.366,0-4.283-1.916-4.283-4.283
					l0.011-368.813c0-2.366,1.916-4.283,4.282-4.283h10.278v-49.592v-3.351v-2.88c0-6.873,5.589-12.462,12.462-12.462h195.466
					c6.863,0,12.451,5.589,12.451,12.462v55.823h6.242v-80.747c0-6.445,4.957-11.691,11.049-11.691h239.469
					c6.103,0,11.06,5.246,11.06,11.691v80.747h6.681C655.175,230.554,657.102,232.471,657.102,234.837z M648.537,570.31V239.119
					h-2.398v79.291c0,6.295-5.128,11.424-11.424,11.424h-77.193v9.871c0,2.366-1.916,4.283-4.283,4.283h-99.623
					c-2.366,0-4.283-1.916-4.283-4.283v-9.871h-53.361c-6.295,0-11.413-5.128-11.413-11.424v-79.291h-6.242v110.094
					c7.934,2.387,13.736,9.753,13.736,18.458v46.594c5.996,1.563,10.728,6.285,12.28,12.291h86.326
					c10.621,0,19.271,8.64,19.271,19.272v11.777h20.235c2.355,0,4.283,1.916,4.283,4.283v70.662c0,2.366-1.927,4.283-4.283,4.283
					h-51.391c-2.366,0-4.283-1.916-4.283-4.283v-70.662c0-2.366,1.916-4.283,4.283-4.283h22.59v-11.777
					c0-5.91-4.807-10.706-10.706-10.706h-86.326c-1.552,6.006-6.285,10.728-12.28,12.28v101.207c0,5.899,4.797,10.706,10.706,10.706
					h12.848c4.914,0,9.058-3.34,10.31-7.869h-11.445c-8.233,0-14.925-6.692-14.925-14.925v-76.133
					c0-8.233,6.691-14.935,14.925-14.935h32.237c8.233,0,14.935,6.702,14.935,14.935v76.133c0,8.233-6.702,14.925-14.935,14.925
					h-12.066c-1.381,9.282-9.379,16.434-19.036,16.434h-12.848c-10.631,0-19.272-8.651-19.272-19.271V447.401
					c-6.006-1.552-10.738-6.274-12.291-12.28h-50.877v22.483h21.413c2.355,0,4.283,1.916,4.283,4.283v70.662
					c0,2.366-1.927,4.283-4.283,4.283h-51.391c-2.366,0-4.283-1.916-4.283-4.283v-70.662c0-2.366,1.916-4.283,4.283-4.283h21.413
					v-22.483h-27.836c-5.91,0-10.706,4.796-10.706,10.706v102.781c0,10.621-8.651,19.271-19.271,19.271h-31.766
					c-9.657,0-17.665-7.152-19.047-16.434H173.71c-8.693,0-15.77-7.077-15.77-15.771V439.81c0-8.694,7.077-15.771,15.77-15.771
					h66.958c8.693,0,15.77,7.077,15.77,15.771v95.865c0,8.694-7.077,15.771-15.77,15.771h-28.811
					c1.253,4.529,5.396,7.869,10.321,7.869h31.766c5.899,0,10.706-4.807,10.706-10.706V445.827c0-10.631,8.64-19.272,19.272-19.272
					h87.278c1.552-6.006,6.285-10.728,12.291-12.291v-46.594c0-3.876-2.077-7.27-5.171-9.143v46.487
					c0,7.741-6.295,14.047-14.047,14.047H171.986c-7.741,0-14.047-6.306-14.047-14.047V239.119h-5.996V570.31h102h161.666H648.537z
					 M648.526,599.367v-20.492H151.933v20.492H648.526z M637.574,318.411v-17.719v-111.1V163.19c0-1.574-1.285-2.859-2.859-2.859
					H395.974c-1.574,0-2.848,1.285-2.848,2.859v21.68v115.822v17.719c0,1.574,1.274,2.859,2.848,2.859h238.741
					C636.289,321.269,637.574,319.985,637.574,318.411z M637.574,152.152v-2.345c0-1.692-1.146-3.126-2.495-3.126H395.61
					c-1.349,0-2.484,1.435-2.484,3.126v2.345c0.91-0.246,1.863-0.385,2.848-0.385h238.741
					C635.7,151.766,636.653,151.905,637.574,152.152z M548.957,335.423v-5.589h-91.058v5.589H548.957z M525.885,528.266v-3.212
					h-42.825v3.212H525.885z M525.885,516.489v-50.32h-42.825v50.32H525.885z M453.081,536.521v-6.06h-22.483h-22.483v6.06
					c0,3.512,2.848,6.36,6.36,6.36h16.124h16.113C450.223,542.88,453.081,540.033,453.081,536.521z M453.081,521.896v-51.819
					h-44.967v51.819H453.081z M453.081,461.512v-1.124c0-3.512-2.859-6.37-6.37-6.37h-32.237c-3.512,0-6.36,2.859-6.36,6.37v1.124
					H453.081z M396.338,430.838c0-4.721-3.844-8.565-8.565-8.565c-4.732,0-8.565,3.844-8.565,8.565s3.833,8.565,8.565,8.565
					C392.494,439.404,396.338,435.56,396.338,430.838z M369.754,405.015v-0.3h-203.25v0.3c0,3.019,2.462,5.482,5.482,5.482h192.286
					C367.291,410.496,369.754,408.034,369.754,405.015z M369.754,396.15v-90.244h-203.25v90.244h68.189v-15.139
					c0-5.856,4.754-10.61,10.599-10.61h45.673c5.846,0,10.599,4.754,10.599,10.61v15.139H369.754z M369.754,297.341V181.894h-203.25
					v115.447H369.754z M166.772,173.329h202.714c-0.567-1.456-1.97-2.495-3.619-2.495H170.401
					C168.742,170.834,167.339,171.873,166.772,173.329z M337.453,528.266v-3.212h-42.825v3.212H337.453z M337.453,516.489v-50.32
					h-42.825v50.32H337.453z M293,396.15v-15.139c0-1.124-0.91-2.045-2.034-2.045h-45.673c-1.124,0-2.034,0.921-2.034,2.045v15.139
					H293z M247.873,535.675V439.81c0-3.972-3.233-7.205-7.205-7.205H173.71c-3.972,0-7.205,3.233-7.205,7.205v95.865
					c0,3.972,3.233,7.205,7.205,7.205h66.958C244.639,542.88,247.873,539.647,247.873,535.675z"/>
				<path style="fill:#B0B0B0;" d="M648.537,239.119V570.31H415.609v-2.43c9.657,0,17.655-7.152,19.036-16.434h12.066
					c8.233,0,14.935-6.692,14.935-14.925v-76.133c0-8.233-6.702-14.935-14.935-14.935h-32.237c-8.233,0-14.925,6.702-14.925,14.935
					v76.133c0,8.233,6.691,14.925,14.925,14.925h11.445c-1.253,4.529-5.396,7.869-10.31,7.869h-12.848
					c-5.91,0-10.706-4.807-10.706-10.706V447.401c5.996-1.552,10.728-6.274,12.28-12.28h86.326c5.899,0,10.706,4.796,10.706,10.706
					v11.777h-22.59c-2.366,0-4.283,1.916-4.283,4.283v70.662c0,2.366,1.916,4.283,4.283,4.283h51.391
					c2.355,0,4.283-1.916,4.283-4.283v-70.662c0-2.366-1.927-4.283-4.283-4.283h-20.235v-11.777
					c0-10.631-8.651-19.272-19.271-19.272h-86.326c-1.552-6.006-6.285-10.728-12.28-12.291v-46.594
					c0-8.704-5.803-16.07-13.736-18.458V239.119h6.242v79.291c0,6.295,5.118,11.424,11.413,11.424h53.361v9.871
					c0,2.366,1.916,4.283,4.283,4.283h99.623c2.366,0,4.283-1.916,4.283-4.283v-9.871h77.193c6.295,0,11.424-5.128,11.424-11.424
					v-79.291H648.537z M634.04,488.621v-23.254c0-13.918-11.317-25.235-25.224-25.235h-1.841c-13.908,0-25.224,11.317-25.224,25.235
					v23.254c0,13.908,11.317,25.224,25.224,25.224h1.841C622.724,513.845,634.04,502.528,634.04,488.621z M626.707,411.567v-57.14
					c0-2.366-1.917-4.283-4.283-4.283H418.693c-2.366,0-4.283,1.916-4.283,4.283v57.14c0,2.366,1.916,4.283,4.283,4.283h203.731
					C624.79,415.849,626.707,413.933,626.707,411.567z"/>
				<rect x="151.933" y="578.875" style="fill:#979797;" width="496.593" height="20.492"/>
				<path style="fill:#4E4E4E;" d="M637.574,300.692v17.719c0,1.574-1.285,2.859-2.859,2.859H395.974
					c-1.574,0-2.848-1.285-2.848-2.859v-17.719h2.58c0,2.366,1.916,4.283,4.283,4.283H630.7c2.366,0,4.283-1.916,4.283-4.283
					H637.574z"/>
				<path style="fill:#666666;" d="M637.574,149.807v2.345c-0.921-0.246-1.874-0.385-2.859-0.385H395.974
					c-0.985,0-1.938,0.139-2.848,0.385v-2.345c0-1.692,1.135-3.126,2.484-3.126h239.469
					C636.428,146.681,637.574,148.115,637.574,149.807z"/>
				<path d="M634.983,169.325v131.367c0,2.366-1.916,4.283-4.283,4.283H399.989c-2.366,0-4.283-1.916-4.283-4.283V169.325
					c0-2.366,1.916-4.283,4.283-4.283H630.7C633.066,165.042,634.983,166.958,634.983,169.325z M626.418,296.409V173.607H404.271
					v122.802H626.418z"/>
				<path d="M634.04,465.366v23.254c0,13.908-11.317,25.224-25.224,25.224h-1.841c-13.908,0-25.224-11.317-25.224-25.224v-23.254
					c0-13.918,11.317-25.235,25.224-25.235h1.841C622.724,440.132,634.04,451.448,634.04,465.366z M625.475,488.621v-12.494h-35.16
					v12.494c0,9.186,7.473,16.659,16.659,16.659h1.841C618.002,505.28,625.475,497.807,625.475,488.621z M625.475,467.561v-2.195
					c0-8.04-5.717-14.764-13.297-16.327v18.522H625.475z M603.613,467.561v-18.522c-7.58,1.563-13.297,8.287-13.297,16.327v2.195
					H603.613z"/>
				<path d="M626.707,354.427v57.14c0,2.366-1.917,4.283-4.283,4.283H418.693c-2.366,0-4.283-1.916-4.283-4.283v-57.14
					c0-2.366,1.916-4.283,4.283-4.283h203.731C624.79,350.145,626.707,352.061,626.707,354.427z M618.142,407.284v-10.482h-15.696
					v10.482H618.142z M618.142,388.238v-10.482h-6.178v10.482H618.142z M618.142,369.191V358.71h-15.696v10.482H618.142z
					 M603.399,388.238v-10.482h-10.482v10.482H603.399z M593.881,407.284v-10.482h-17.301v10.482H593.881z M593.881,369.191V358.71
					h-17.301v10.482H593.881z M584.352,388.238v-10.482h-17.302v10.482H584.352z M568.014,407.284v-10.482h-17.302v10.482H568.014z
					 M568.014,369.191V358.71h-17.302v10.482H568.014z M558.486,388.238v-10.482h-17.301v10.482H558.486z M542.148,407.284v-10.482
					H498.98v10.482H542.148z M542.148,369.191V358.71h-17.301v10.482H542.148z M532.619,388.238v-10.482h-17.302v10.482H532.619z
					 M516.281,369.191V358.71H498.98v10.482H516.281z M506.753,388.238v-10.482h-17.302v10.482H506.753z M490.415,407.284v-10.482
					h-17.312v10.482H490.415z M490.415,369.191V358.71h-17.312v10.482H490.415z M480.886,388.238v-10.482h-17.301v10.482H480.886z
					 M464.537,407.284v-10.482h-17.302v10.482H464.537z M464.537,369.191V358.71h-17.302v10.482H464.537z M455.019,388.238v-10.482
					h-17.301v10.482H455.019z M438.671,407.284v-10.482h-15.695v10.482H438.671z M438.671,369.191V358.71h-15.695v10.482H438.671z
					 M429.153,388.238v-10.482h-6.178v10.482H429.153z"/>
				<path style="fill:#395EC4;" d="M626.418,173.607v122.802H404.271V173.607H626.418z M516.249,221.796
					c0-2.366-1.927-4.282-4.283-4.282h-9.636c-2.366,0-4.283,1.916-4.283,4.282c0,2.366,1.916,4.283,4.283,4.283h9.636
					C514.322,226.079,516.249,224.163,516.249,221.796z M509.825,267.031c0-2.366-1.927-4.283-4.283-4.283h-86.722
					c-2.366,0-4.282,1.916-4.282,4.283c0,2.366,1.916,4.283,4.282,4.283h86.722C507.898,271.314,509.825,269.397,509.825,267.031z
					 M508.755,207.075c0-2.366-1.927-4.283-4.283-4.283h-46.037c-2.366,0-4.283,1.917-4.283,4.283s1.917,4.283,4.283,4.283h46.037
					C506.827,211.358,508.755,209.441,508.755,207.075z M488.412,282.02c0-2.366-1.927-4.283-4.282-4.283h-41.755
					c-2.366,0-4.283,1.916-4.283,4.283c0,2.366,1.916,4.283,4.283,4.283h41.755C486.485,286.302,488.412,284.386,488.412,282.02z
					 M485.201,221.796c0-2.366-1.927-4.282-4.283-4.282h-35.331c-2.366,0-4.283,1.916-4.283,4.282c0,2.366,1.916,4.283,4.283,4.283
					h35.331C483.273,226.079,485.201,224.163,485.201,221.796z M478.006,251.239c0-2.366-1.916-4.283-4.283-4.283h-30.588
					c-2.355,0-4.283,1.916-4.283,4.283s1.927,4.283,4.283,4.283h30.588C476.089,255.522,478.006,253.605,478.006,251.239z
					 M458.435,236.518c0-2.366-1.927-4.283-4.283-4.283h-35.331c-2.366,0-4.282,1.917-4.282,4.283c0,2.366,1.916,4.282,4.282,4.282
					h35.331C456.507,240.8,458.435,238.884,458.435,236.518z M444.516,207.075c0-2.366-1.927-4.283-4.283-4.283h-21.413
					c-2.366,0-4.282,1.917-4.282,4.283s1.916,4.283,4.282,4.283h21.413C442.589,211.358,444.516,209.441,444.516,207.075z
					 M432.739,192.354c0-2.366-1.927-4.283-4.283-4.283h-9.636c-2.366,0-4.282,1.916-4.282,4.283c0,2.366,1.916,4.283,4.282,4.283
					h9.636C430.812,196.637,432.739,194.72,432.739,192.354z M432.739,221.796c0-2.366-1.927-4.282-4.283-4.282h-9.636
					c-2.366,0-4.282,1.916-4.282,4.282c0,2.366,1.916,4.283,4.282,4.283h9.636C430.812,226.079,432.739,224.163,432.739,221.796z
					 M432.739,251.239c0-2.366-1.927-4.283-4.283-4.283h-9.636c-2.366,0-4.282,1.916-4.282,4.283s1.916,4.283,4.282,4.283h9.636
					C430.812,255.522,432.739,253.605,432.739,251.239z M432.739,282.02c0-2.366-1.927-4.283-4.283-4.283h-9.636
					c-2.366,0-4.282,1.916-4.282,4.283c0,2.366,1.916,4.283,4.282,4.283h9.636C430.812,286.302,432.739,284.386,432.739,282.02z"/>
				<path style="fill:#4E4E4E;" d="M625.475,476.126v12.494c0,9.186-7.473,16.659-16.659,16.659h-1.841
					c-9.186,0-16.659-7.473-16.659-16.659v-12.494H625.475z"/>
				<path style="fill:#4E4E4E;" d="M625.475,465.366v2.195h-13.297v-18.522C619.758,450.602,625.475,457.326,625.475,465.366z"/>
				<rect x="602.446" y="396.803" style="fill:#666666;" width="15.696" height="10.481"/>
				<rect x="611.964" y="377.756" style="fill:#666666;" width="6.178" height="10.481"/>
				<rect x="602.446" y="358.71" style="fill:#666666;" width="15.696" height="10.481"/>
				<path style="fill:#4E4E4E;" d="M603.613,449.039v18.522h-13.297v-2.195C590.316,457.326,596.033,450.602,603.613,449.039z"/>
				<rect x="592.917" y="377.756" style="fill:#666666;" width="10.481" height="10.481"/>
				<rect x="576.579" y="396.803" style="fill:#666666;" width="17.301" height="10.481"/>
				<rect x="576.579" y="358.71" style="fill:#666666;" width="17.301" height="10.481"/>
				<rect x="567.051" y="377.756" style="fill:#666666;" width="17.302" height="10.481"/>
				<rect x="550.713" y="396.803" style="fill:#666666;" width="17.302" height="10.481"/>
				<rect x="550.713" y="358.71" style="fill:#666666;" width="17.302" height="10.481"/>
				<rect x="541.184" y="377.756" style="fill:#666666;" width="17.302" height="10.481"/>
				<rect x="457.899" y="329.835" style="fill:#363636;" width="91.058" height="5.589"/>
				<rect x="498.98" y="396.803" style="fill:#666666;" width="43.168" height="10.481"/>
				<rect x="524.846" y="358.71" style="fill:#666666;" width="17.302" height="10.481"/>
				<rect x="515.318" y="377.756" style="fill:#666666;" width="17.302" height="10.481"/>
				<rect x="483.059" y="525.054" style="fill:#363636;" width="42.826" height="3.212"/>
				<rect x="483.059" y="466.169" style="fill:#4E4E4E;" width="42.826" height="50.32"/>
				<rect x="498.98" y="358.71" style="fill:#666666;" width="17.302" height="10.481"/>
				<path d="M511.966,217.514c2.355,0,4.283,1.916,4.283,4.282c0,2.366-1.927,4.283-4.283,4.283h-9.636
					c-2.366,0-4.283-1.917-4.283-4.283c0-2.366,1.916-4.282,4.283-4.282H511.966z"/>
				<path d="M505.543,262.748c2.355,0,4.283,1.916,4.283,4.283c0,2.366-1.927,4.283-4.283,4.283h-86.722
					c-2.366,0-4.282-1.917-4.282-4.283c0-2.366,1.916-4.283,4.282-4.283H505.543z"/>
				<path d="M504.472,202.793c2.355,0,4.283,1.917,4.283,4.283s-1.927,4.283-4.283,4.283h-46.037c-2.366,0-4.283-1.916-4.283-4.283
					s1.917-4.283,4.283-4.283H504.472z"/>
				<rect x="489.451" y="377.756" style="fill:#666666;" width="17.301" height="10.481"/>
				<rect x="473.102" y="396.803" style="fill:#666666;" width="17.312" height="10.481"/>
				<rect x="473.102" y="358.71" style="fill:#666666;" width="17.312" height="10.481"/>
				<path d="M484.13,277.737c2.355,0,4.282,1.916,4.282,4.283c0,2.366-1.927,4.283-4.282,4.283h-41.755
					c-2.366,0-4.283-1.916-4.283-4.283c0-2.366,1.916-4.283,4.283-4.283H484.13z"/>
				<path d="M480.918,217.514c2.355,0,4.283,1.916,4.283,4.282c0,2.366-1.927,4.283-4.283,4.283h-35.331
					c-2.366,0-4.283-1.917-4.283-4.283c0-2.366,1.916-4.282,4.283-4.282H480.918z"/>
				<rect x="463.585" y="377.756" style="fill:#666666;" width="17.301" height="10.481"/>
				<path d="M473.723,246.956c2.366,0,4.283,1.916,4.283,4.283s-1.916,4.283-4.283,4.283h-30.588c-2.355,0-4.283-1.917-4.283-4.283
					s1.927-4.283,4.283-4.283H473.723z"/>
				<rect x="447.236" y="396.803" style="fill:#666666;" width="17.302" height="10.481"/>
				<rect x="447.236" y="358.71" style="fill:#666666;" width="17.302" height="10.481"/>
				<path d="M454.152,232.235c2.355,0,4.283,1.917,4.283,4.283c0,2.366-1.927,4.282-4.283,4.282h-35.331
					c-2.366,0-4.282-1.916-4.282-4.282c0-2.366,1.916-4.283,4.282-4.283H454.152z"/>
				<rect x="437.718" y="377.756" style="fill:#666666;" width="17.302" height="10.481"/>
				<path style="fill:#395EC4;" d="M453.081,470.077v51.819h-44.967v-51.819H453.081z M445.587,510.868
					c0-2.366-1.927-4.283-4.283-4.283H416.68c-2.366,0-4.283,1.917-4.283,4.283c0,2.366,1.916,4.283,4.283,4.283h24.625
					C443.66,515.151,445.587,513.235,445.587,510.868z M442.375,481.426c0-2.366-1.927-4.283-4.283-4.283H416.68
					c-2.366,0-4.283,1.916-4.283,4.283c0,2.366,1.916,4.283,4.283,4.283h21.413C440.448,485.708,442.375,483.792,442.375,481.426z
					 M430.598,496.147c0-2.366-1.927-4.283-4.283-4.283h-9.636c-2.366,0-4.283,1.916-4.283,4.283c0,2.366,1.916,4.283,4.283,4.283
					h9.636C428.671,500.43,430.598,498.513,430.598,496.147z"/>
				<path style="fill:#4E4E4E;" d="M453.081,460.388v1.124h-44.967v-1.124c0-3.512,2.848-6.37,6.36-6.37h32.237
					C450.223,454.018,453.081,456.876,453.081,460.388z"/>
				<path d="M441.304,506.586c2.355,0,4.283,1.917,4.283,4.283c0,2.366-1.927,4.283-4.283,4.283H416.68
					c-2.366,0-4.283-1.916-4.283-4.283c0-2.366,1.916-4.283,4.283-4.283H441.304z"/>
				<path d="M440.234,202.793c2.355,0,4.283,1.917,4.283,4.283s-1.927,4.283-4.283,4.283h-21.413c-2.366,0-4.282-1.916-4.282-4.283
					s1.916-4.283,4.282-4.283H440.234z"/>
				<path d="M438.093,477.143c2.355,0,4.283,1.916,4.283,4.283c0,2.366-1.927,4.283-4.283,4.283H416.68
					c-2.366,0-4.283-1.916-4.283-4.283c0-2.366,1.916-4.283,4.283-4.283H438.093z"/>
				<rect x="422.975" y="396.803" style="fill:#666666;" width="15.695" height="10.481"/>
				<rect x="422.975" y="358.71" style="fill:#666666;" width="15.695" height="10.481"/>
				<circle cx="430.598" cy="536.307" r="4.55"/>
				<path style="fill:#4E4E4E;" d="M435.148,536.307c0-2.516-2.045-4.55-4.55-4.55v-1.295h22.483v6.06c0,3.512-2.859,6.36-6.37,6.36
					h-16.113v-2.023C433.103,540.857,435.148,538.823,435.148,536.307z"/>
				<path d="M428.457,188.072c2.355,0,4.283,1.916,4.283,4.283c0,2.366-1.927,4.283-4.283,4.283h-9.636
					c-2.366,0-4.282-1.917-4.282-4.283c0-2.366,1.916-4.283,4.282-4.283H428.457z"/>
				<path d="M428.457,217.514c2.355,0,4.283,1.916,4.283,4.282c0,2.366-1.927,4.283-4.283,4.283h-9.636
					c-2.366,0-4.282-1.917-4.282-4.283c0-2.366,1.916-4.282,4.282-4.282H428.457z"/>
				<path d="M428.457,246.956c2.355,0,4.283,1.916,4.283,4.283s-1.927,4.283-4.283,4.283h-9.636c-2.366,0-4.282-1.917-4.282-4.283
					s1.916-4.283,4.282-4.283H428.457z"/>
				<path d="M428.457,277.737c2.355,0,4.283,1.916,4.283,4.283c0,2.366-1.927,4.283-4.283,4.283h-9.636
					c-2.366,0-4.282-1.916-4.282-4.283c0-2.366,1.916-4.283,4.282-4.283H428.457z"/>
				<path style="fill:#4E4E4E;" d="M408.115,530.461h22.483v1.295c-2.516,0-4.55,2.034-4.55,4.55c0,2.516,2.034,4.55,4.55,4.55
					v2.023h-16.124c-3.512,0-6.36-2.848-6.36-6.36V530.461z"/>
				<path d="M426.316,491.865c2.355,0,4.283,1.916,4.283,4.283c0,2.366-1.927,4.283-4.283,4.283h-9.636
					c-2.366,0-4.283-1.916-4.283-4.283c0-2.366,1.916-4.283,4.283-4.283H426.316z"/>
				<rect x="422.975" y="377.756" style="fill:#666666;" width="6.178" height="10.481"/>
				<path style="fill:#B0B0B0;" d="M415.609,570.31H253.943v-2.43c10.621,0,19.271-8.651,19.271-19.271V445.827
					c0-5.91,4.796-10.706,10.706-10.706h27.836v22.483h-21.413c-2.366,0-4.283,1.916-4.283,4.283v70.662
					c0,2.366,1.916,4.283,4.283,4.283h51.391c2.355,0,4.283-1.916,4.283-4.283v-70.662c0-2.366-1.927-4.283-4.283-4.283h-21.413
					v-22.483h50.877c1.552,6.006,6.285,10.728,12.291,12.28v101.207c0,10.621,8.64,19.271,19.272,19.271h12.848V570.31z"/>
				<path style="fill:#4E4E4E;" d="M637.574,189.592v111.1h-2.591V169.325c0-2.366-1.916-4.283-4.283-4.283H399.989
					c-2.366,0-4.283,1.916-4.283,4.283v131.367h-2.58V184.87v-21.68c0-1.574,1.274-2.859,2.848-2.859h238.741
					c1.574,0,2.859,1.285,2.859,2.859V189.592z"/>
				<circle style="fill:#363636;" cx="387.773" cy="430.838" r="8.565"/>
				<path style="fill:#363636;" d="M369.754,404.715v0.3c0,3.019-2.462,5.482-5.482,5.482H171.986c-3.019,0-5.482-2.462-5.482-5.482
					v-0.3H369.754z"/>
				<path style="fill:#666666;" d="M369.754,181.894v115.447h-203.25V181.894H369.754z M365.246,288.551v-97.867
					c0-2.366-1.917-4.283-4.283-4.283h-185.67c-2.366,0-4.283,1.916-4.283,4.283v97.867c0,2.366,1.917,4.283,4.283,4.283h185.67
					C363.33,292.833,365.246,290.917,365.246,288.551z"/>
				<path d="M365.246,190.684v97.867c0,2.366-1.917,4.283-4.283,4.283h-185.67c-2.366,0-4.283-1.917-4.283-4.283v-97.867
					c0-2.366,1.917-4.283,4.283-4.283h185.67C363.33,186.401,365.246,188.318,365.246,190.684z M356.681,284.268v-89.302H179.577
					v89.302H356.681z"/>
				<path d="M360.364,313.957v49.335c0,2.366-1.927,4.283-4.283,4.283H180.176c-2.355,0-4.283-1.916-4.283-4.283v-49.335
					c0-2.366,1.927-4.283,4.283-4.283h175.906C358.437,309.674,360.364,311.591,360.364,313.957z M351.799,359.009v-7.88h-12.387
					v7.88H351.799z M351.799,342.564v-7.88h-4.165v7.88H351.799z M351.799,326.119v-7.88h-12.387v7.88H351.799z M339.069,342.564
					v-7.88h-7.88v7.88H339.069z M330.847,359.009v-7.88h-13.768v7.88H330.847z M330.847,326.119v-7.88h-13.768v7.88H330.847z
					 M322.624,342.564v-7.88h-13.768v7.88H322.624z M308.513,359.009v-7.88h-13.768v7.88H308.513z M308.513,326.119v-7.88h-13.768
					v7.88H308.513z M300.291,342.564v-7.88h-13.768v7.88H300.291z M286.18,359.009v-7.88h-36.102v7.88H286.18z M286.18,326.119
					v-7.88h-13.768v7.88H286.18z M277.957,342.564v-7.88h-13.768v7.88H277.957z M263.846,326.119v-7.88h-13.768v7.88H263.846z
					 M255.624,342.564v-7.88h-13.768v7.88H255.624z M241.513,359.009v-7.88h-13.768v7.88H241.513z M241.513,326.119v-7.88h-13.768
					v7.88H241.513z M233.29,342.564v-7.88h-13.768v7.88H233.29z M219.179,359.009v-7.88h-13.768v7.88H219.179z M219.179,326.119
					v-7.88h-13.768v7.88H219.179z M210.957,342.564v-7.88h-13.768v7.88H210.957z M196.846,359.009v-7.88h-12.387v7.88H196.846z
					 M196.846,326.119v-7.88h-12.387v7.88H196.846z M188.623,342.564v-7.88h-4.165v7.88H188.623z"/>
				<path style="fill:#395EC4;" d="M356.681,194.966v89.302H179.577v-89.302H356.681z M284.991,237.588
					c0-2.366-1.927-4.283-4.282-4.283h-9.636c-2.366,0-4.283,1.916-4.283,4.283c0,2.366,1.916,4.283,4.283,4.283h9.636
					C283.064,241.871,284.991,239.954,284.991,237.588z M277.497,222.867c0-2.366-1.927-4.283-4.283-4.283h-46.037
					c-2.366,0-4.283,1.917-4.283,4.283s1.916,4.283,4.283,4.283h46.037C275.57,227.15,277.497,225.233,277.497,222.867z
					 M253.943,237.588c0-2.366-1.927-4.283-4.283-4.283h-35.331c-2.366,0-4.283,1.916-4.283,4.283c0,2.366,1.916,4.283,4.283,4.283
					h35.331C252.016,241.871,253.943,239.954,253.943,237.588z M246.748,267.031c0-2.366-1.917-4.283-4.283-4.283h-30.588
					c-2.355,0-4.283,1.916-4.283,4.283c0,2.366,1.927,4.283,4.283,4.283h30.588C244.832,271.314,246.748,269.397,246.748,267.031z
					 M227.177,252.31c0-2.366-1.927-4.283-4.283-4.283h-35.331c-2.366,0-4.283,1.917-4.283,4.283c0,2.366,1.916,4.283,4.283,4.283
					h35.331C225.25,256.592,227.177,254.676,227.177,252.31z M213.259,222.867c0-2.366-1.927-4.283-4.283-4.283h-21.413
					c-2.366,0-4.283,1.917-4.283,4.283s1.916,4.283,4.283,4.283h21.413C211.332,227.15,213.259,225.233,213.259,222.867z
					 M201.482,208.146c0-2.366-1.927-4.283-4.283-4.283h-9.636c-2.366,0-4.283,1.916-4.283,4.283c0,2.366,1.916,4.283,4.283,4.283
					h9.636C199.555,212.428,201.482,210.512,201.482,208.146z M201.482,237.588c0-2.366-1.927-4.283-4.283-4.283h-9.636
					c-2.366,0-4.283,1.916-4.283,4.283c0,2.366,1.916,4.283,4.283,4.283h9.636C199.555,241.871,201.482,239.954,201.482,237.588z
					 M201.482,267.031c0-2.366-1.927-4.283-4.283-4.283h-9.636c-2.366,0-4.283,1.916-4.283,4.283c0,2.366,1.916,4.283,4.283,4.283
					h9.636C199.555,271.314,201.482,269.397,201.482,267.031z"/>
				<rect x="339.412" y="351.129" style="fill:#666666;" width="12.387" height="7.88"/>
				<rect x="347.634" y="334.685" style="fill:#666666;" width="4.165" height="7.88"/>
				<rect x="339.412" y="318.24" style="fill:#666666;" width="12.387" height="7.88"/>
				<rect x="331.189" y="334.685" style="fill:#666666;" width="7.88" height="7.88"/>
				<rect x="294.627" y="525.054" style="fill:#363636;" width="42.825" height="3.212"/>
				<rect x="294.627" y="466.169" style="fill:#4E4E4E;" width="42.825" height="50.32"/>
				<rect x="317.078" y="351.129" style="fill:#666666;" width="13.768" height="7.88"/>
				<rect x="317.078" y="318.24" style="fill:#666666;" width="13.768" height="7.88"/>
				<rect x="308.856" y="334.685" style="fill:#666666;" width="13.768" height="7.88"/>
				<rect x="294.745" y="351.129" style="fill:#666666;" width="13.768" height="7.88"/>
				<rect x="294.745" y="318.24" style="fill:#666666;" width="13.768" height="7.88"/>
				<rect x="286.522" y="334.685" style="fill:#666666;" width="13.768" height="7.88"/>
				<path style="fill:#7F7F7F;" d="M293,381.011v15.139h-49.742v-15.139c0-1.124,0.91-2.045,2.034-2.045h45.673
					C292.09,378.966,293,379.887,293,381.011z"/>
				<path style="fill:#4E4E4E;" d="M180.176,367.574h175.906c2.355,0,4.283-1.916,4.283-4.283v-49.335
					c0-2.366-1.927-4.283-4.283-4.283H180.176c-2.355,0-4.283,1.916-4.283,4.283v49.335
					C175.894,365.658,177.821,367.574,180.176,367.574z M290.966,370.401h-45.673c-5.846,0-10.599,4.754-10.599,10.61v15.139
					h-68.189v-90.244h203.25v90.244h-68.189v-15.139C301.565,375.155,296.811,370.401,290.966,370.401z"/>
				<rect x="250.078" y="351.129" style="fill:#666666;" width="36.102" height="7.88"/>
				<rect x="272.411" y="318.24" style="fill:#666666;" width="13.768" height="7.88"/>
				<path d="M280.709,233.306c2.355,0,4.282,1.916,4.282,4.283c0,2.366-1.927,4.283-4.282,4.283h-9.636
					c-2.366,0-4.283-1.917-4.283-4.283c0-2.366,1.916-4.283,4.283-4.283H280.709z"/>
				<rect x="264.189" y="334.685" style="fill:#666666;" width="13.768" height="7.88"/>
				<path d="M273.215,218.585c2.355,0,4.283,1.917,4.283,4.283s-1.927,4.283-4.283,4.283h-46.037c-2.366,0-4.283-1.916-4.283-4.283
					s1.916-4.283,4.283-4.283H273.215z"/>
				<rect x="250.078" y="318.24" style="fill:#666666;" width="13.768" height="7.88"/>
				<rect x="241.856" y="334.685" style="fill:#666666;" width="13.768" height="7.88"/>
				<path style="fill:#B0B0B0;" d="M253.943,570.31h-102V239.119h5.996v165.895c0,7.741,6.306,14.047,14.047,14.047h192.286
					c7.751,0,14.047-6.306,14.047-14.047v-46.487c3.094,1.874,5.171,5.268,5.171,9.143v46.594
					c-6.006,1.563-10.738,6.285-12.291,12.291h-87.278c-10.631,0-19.272,8.64-19.272,19.272v102.781
					c0,5.899-4.807,10.706-10.706,10.706h-31.766c-4.925,0-9.068-3.34-10.321-7.869h28.811c8.693,0,15.77-7.077,15.77-15.771V439.81
					c0-8.694-7.077-15.771-15.77-15.771H173.71c-8.693,0-15.77,7.077-15.77,15.771v95.865c0,8.694,7.077,15.771,15.77,15.771h29.421
					c1.381,9.282,9.389,16.434,19.047,16.434h31.766V570.31z"/>
				<path d="M249.66,233.306c2.355,0,4.283,1.916,4.283,4.283c0,2.366-1.927,4.283-4.283,4.283h-35.331
					c-2.366,0-4.283-1.917-4.283-4.283c0-2.366,1.916-4.283,4.283-4.283H249.66z"/>
				<path d="M242.466,262.748c2.366,0,4.283,1.916,4.283,4.283c0,2.366-1.917,4.283-4.283,4.283h-30.588
					c-2.355,0-4.283-1.917-4.283-4.283c0-2.366,1.927-4.283,4.283-4.283H242.466z"/>
				<path d="M242.519,442.241v84.998c0,2.366-1.917,4.282-4.283,4.282H176.14c-2.366,0-4.283-1.916-4.283-4.282v-84.998
					c0-2.366,1.916-4.283,4.283-4.283h62.097C240.603,437.958,242.519,439.875,242.519,442.241z M233.954,522.956v-76.433h-53.532
					v76.433H233.954z"/>
				<rect x="227.745" y="351.129" style="fill:#666666;" width="13.768" height="7.88"/>
				<rect x="227.745" y="318.24" style="fill:#666666;" width="13.768" height="7.88"/>
				<path style="fill:#395EC4;" d="M183.281,503.909c0,2.366,1.916,4.283,4.283,4.283h9.636c2.355,0,4.283-1.917,4.283-4.283
					s-1.927-4.283-4.283-4.283h-9.636C185.197,499.627,183.281,501.543,183.281,503.909z M183.281,489.188
					c0,2.366,1.916,4.283,4.283,4.283h35.331c2.355,0,4.283-1.916,4.283-4.283c0-2.366-1.927-4.283-4.283-4.283h-35.331
					C185.197,484.905,183.281,486.822,183.281,489.188z M183.281,474.467c0,2.366,1.916,4.283,4.283,4.283h9.636
					c2.355,0,4.283-1.917,4.283-4.283s-1.927-4.283-4.283-4.283h-9.636C185.197,470.184,183.281,472.101,183.281,474.467z
					 M183.281,459.746c0,2.366,1.916,4.283,4.283,4.283h21.413c2.355,0,4.283-1.916,4.283-4.283c0-2.366-1.927-4.283-4.283-4.283
					h-21.413C185.197,455.463,183.281,457.379,183.281,459.746z M180.422,522.956v-76.433h53.532v76.433H180.422z"/>
				<rect x="219.522" y="334.685" style="fill:#666666;" width="13.768" height="7.88"/>
				<path d="M222.895,248.027c2.355,0,4.283,1.917,4.283,4.283c0,2.366-1.927,4.283-4.283,4.283h-35.331
					c-2.366,0-4.283-1.916-4.283-4.283c0-2.366,1.916-4.283,4.283-4.283H222.895z"/>
				<path d="M222.895,484.905c2.355,0,4.283,1.917,4.283,4.283c0,2.366-1.927,4.283-4.283,4.283h-35.331
					c-2.366,0-4.283-1.916-4.283-4.283c0-2.366,1.916-4.283,4.283-4.283H222.895z"/>
				<rect x="205.411" y="351.129" style="fill:#666666;" width="13.768" height="7.88"/>
				<rect x="205.411" y="318.24" style="fill:#666666;" width="13.768" height="7.88"/>
				<path d="M208.976,218.585c2.355,0,4.283,1.917,4.283,4.283s-1.927,4.283-4.283,4.283h-21.413c-2.366,0-4.283-1.916-4.283-4.283
					s1.916-4.283,4.283-4.283H208.976z"/>
				<path d="M208.976,455.463c2.355,0,4.283,1.916,4.283,4.283c0,2.366-1.927,4.283-4.283,4.283h-21.413
					c-2.366,0-4.283-1.916-4.283-4.283c0-2.366,1.916-4.283,4.283-4.283H208.976z"/>
				<rect x="197.189" y="334.685" style="fill:#666666;" width="13.768" height="7.88"/>
				<path d="M207.188,532.977c2.516,0,4.55,2.045,4.55,4.55c0,2.516-2.034,4.55-4.55,4.55c-2.516,0-4.55-2.034-4.55-4.55
					C202.638,535.022,204.672,532.977,207.188,532.977z"/>
				<path style="fill:#4E4E4E;" d="M176.14,531.521h62.097c2.366,0,4.283-1.916,4.283-4.282v-84.998
					c0-2.366-1.917-4.283-4.283-4.283H176.14c-2.366,0-4.283,1.916-4.283,4.283v84.998
					C171.857,529.605,173.774,531.521,176.14,531.521z M207.188,532.977c-2.516,0-4.55,2.045-4.55,4.55
					c0,2.516,2.034,4.55,4.55,4.55c2.516,0,4.55-2.034,4.55-4.55C211.739,535.022,209.704,532.977,207.188,532.977z M240.667,542.88
					H173.71c-3.972,0-7.205-3.233-7.205-7.205V439.81c0-3.972,3.233-7.205,7.205-7.205h66.958c3.972,0,7.205,3.233,7.205,7.205
					v95.865C247.873,539.647,244.639,542.88,240.667,542.88z"/>
				<path d="M197.199,203.863c2.355,0,4.283,1.916,4.283,4.283c0,2.366-1.927,4.283-4.283,4.283h-9.636
					c-2.366,0-4.283-1.917-4.283-4.283c0-2.366,1.916-4.283,4.283-4.283H197.199z"/>
				<path d="M197.199,233.306c2.355,0,4.283,1.916,4.283,4.283c0,2.366-1.927,4.283-4.283,4.283h-9.636
					c-2.366,0-4.283-1.917-4.283-4.283c0-2.366,1.916-4.283,4.283-4.283H197.199z"/>
				<path d="M197.199,262.748c2.355,0,4.283,1.916,4.283,4.283c0,2.366-1.927,4.283-4.283,4.283h-9.636
					c-2.366,0-4.283-1.917-4.283-4.283c0-2.366,1.916-4.283,4.283-4.283H197.199z"/>
				<path d="M197.199,470.184c2.355,0,4.283,1.916,4.283,4.283s-1.927,4.283-4.283,4.283h-9.636c-2.366,0-4.283-1.917-4.283-4.283
					s1.916-4.283,4.283-4.283H197.199z"/>
				<path d="M197.199,499.627c2.355,0,4.283,1.916,4.283,4.283s-1.927,4.283-4.283,4.283h-9.636c-2.366,0-4.283-1.917-4.283-4.283
					s1.916-4.283,4.283-4.283H197.199z"/>
				<rect x="184.459" y="351.129" style="fill:#666666;" width="12.387" height="7.88"/>
				<rect x="184.459" y="318.24" style="fill:#666666;" width="12.387" height="7.88"/>
				<rect x="184.459" y="334.685" style="fill:#666666;" width="4.165" height="7.88"/>
				<path style="fill:#666666;" d="M170.401,170.834h195.466c1.649,0,3.051,1.038,3.619,2.495H166.772
					C167.339,171.873,168.742,170.834,170.401,170.834z"/>
			</g>
			<g>
			</g>
		</g>
	</g>
</g>
</svg>
